HIERARCHY
ROOT Hips
{
 OFFSET 0.000000 0.000000 0.000000
 CHANNELS 6 Xposition Yposition Zposition Yrotation Xrotation Zrotation
 JOINT Chest
 {
  OFFSET 0.000000 12.953391 -0.028419
  CHANNELS 3 Yrotation Xrotation Zrotation
  JOINT Chest2
  {
   OFFSET 0.000000 10.280254 0.051622
   CHANNELS 3 Yrotation Xrotation Zrotation
   JOINT Chest3
   {
    OFFSET 0.000000 9.287180 0.000000
    CHANNELS 3 Yrotation Xrotation Zrotation
    JOINT Chest4
    {
     OFFSET 0.000000 9.287180 0.000000
     CHANNELS 3 Yrotation Xrotation Zrotation
     JOINT Neck
     {
      OFFSET 0.000000 13.296264 0.000000
      CHANNELS 3 Yrotation Xrotation Zrotation
      JOINT Head
      {
       OFFSET 0.000000 8.959264 0.099003
       CHANNELS 3 Yrotation Xrotation Zrotation
       End Site
       {
        OFFSET 0.000000 17.121337 0.039303
       }
      }
     }
     JOINT RightCollar
     {
      OFFSET -3.193511 7.451388 0.000000
      CHANNELS 3 Yrotation Xrotation Zrotation
      JOINT RightShoulder
      {
       OFFSET -15.792092 0.000000 0.000000
       CHANNELS 3 Yrotation Xrotation Zrotation
       JOINT RightElbow
       {
        OFFSET -31.151839 0.000000 0.000000
        CHANNELS 3 Yrotation Xrotation Zrotation
        JOINT RightWrist
        {
         OFFSET -25.536298 0.000000 0.002321
         CHANNELS 3 Yrotation Xrotation Zrotation
         End Site
         {
          OFFSET -19.133213 0.000000 0.000000
         }
        }
       }
      }
     }
     JOINT LeftCollar
     {
      OFFSET 3.193511 7.451388 0.000000
      CHANNELS 3 Yrotation Xrotation Zrotation
      JOINT LeftShoulder
      {
       OFFSET 15.792092 0.000000 0.000000
       CHANNELS 3 Yrotation Xrotation Zrotation
       JOINT LeftElbow
       {
        OFFSET 31.151839 0.000000 0.000000
        CHANNELS 3 Yrotation Xrotation Zrotation
        JOINT LeftWrist
        {
         OFFSET 25.536298 0.000000 0.002321
         CHANNELS 3 Yrotation Xrotation Zrotation
         End Site
         {
          OFFSET 19.133213 0.000000 0.000000
         }
        }
       }
      }
     }
    }
   }
  }
 }
 JOINT RightHip
 {
  OFFSET -10.745749 0.139252 0.014209
  CHANNELS 3 Yrotation Xrotation Zrotation
  JOINT RightKnee
  {
   OFFSET 0.000000 -43.743899 -0.006071
   CHANNELS 3 Yrotation Xrotation Zrotation
   JOINT RightAnkle
   {
    OFFSET 0.000000 -43.214199 0.089931
    CHANNELS 3 Yrotation Xrotation Zrotation
    JOINT RightToe
    {
     OFFSET 0.000000 -9.699830 19.151588
     CHANNELS 3 Yrotation Xrotation Zrotation
     End Site
     {
      OFFSET 0.000000 -1.292898 4.893873
     }
    }
   }
  }
 }
 JOINT LeftHip
 {
  OFFSET 10.745749 0.139252 0.014209
  CHANNELS 3 Yrotation Xrotation Zrotation
  JOINT LeftKnee
  {
   OFFSET 0.000000 -43.743899 -0.006071
   CHANNELS 3 Yrotation Xrotation Zrotation
   JOINT LeftAnkle
   {
    OFFSET 0.000000 -43.214199 0.089931
    CHANNELS 3 Yrotation Xrotation Zrotation
    JOINT LeftToe
    {
     OFFSET 0.000000 -9.699830 19.151588
     CHANNELS 3 Yrotation Xrotation Zrotation
     End Site
     {
      OFFSET 0.000000 -1.292898 4.893873
     }
    }
   }
  }
 }
}
MOTION
Frames: 7
Frame Time: 0.016667
-34.531261 98.387470 -147.553863 5.874233 -6.083159 -1.808840 -1.022453 4.376373 0.769137 -0.461340 1.943357 0.351230 -0.461340 1.943357 0.351230 -0.347089 1.457254 0.264865 -0.081971 18.456417 0.144740 -0.198073 -1.909361 0.292776 3.966093 4.937629 8.656322 -5.153143 -7.582841 78.910678 1.919943 30.450488 -2.059071 -0.959546 19.579013 -1.000853 -2.149482 0.016206 -8.517065 -6.372148 -11.624361 -69.786044 -9.017501 12.303331 -0.242960 8.495240 7.989847 5.748491 -2.569618 -18.845161 -0.896269 -5.128493 46.017896 -1.013081 8.220247 -3.756532 2.139683 0.000000 -0.000000 0.000000 0.340446 8.218838 -2.473130 -3.242462 6.601381 -0.445693 -6.589901 -7.707824 2.626144 0.000000 -0.000000 0.000000
-34.400726 98.318204 -146.261360 6.180940 -5.876205 -1.839452 -1.195195 4.348068 0.801391 -0.538318 1.930407 0.367114 -0.538318 1.930406 0.367114 -0.404861 1.447483 0.277010 -0.104103 18.413799 0.130459 -0.234168 -1.988479 0.273924 3.912099 4.809109 8.710643 -5.447750 -7.364780 79.043441 2.150079 30.459622 -1.965000 -0.891735 19.464571 -1.150770 -2.183937 0.038069 -8.423008 -6.646187 -12.145235 -69.512451 -9.848233 11.577236 -0.049454 8.412153 7.839314 5.955862 -1.959454 -19.010219 -0.660793 -4.884153 41.116537 -0.954292 7.930522 -4.563046 2.436629 -0.000000 0.000000 0.000000 0.090955 9.051749 -2.387703 -3.087723 6.157140 -0.531322 -6.884725 -8.184124 2.707990 0.000000 0.000000 0.000000
-34.270926 98.218288 -144.978894 6.483840 -5.641143 -1.834341 -1.357590 4.309435 0.817737 -0.610535 1.912907 0.375787 -0.610536 1.912907 0.375787 -0.459037 1.434307 0.283726 -0.130573 18.360712 0.118481 -0.279019 -2.087020 0.260777 3.865029 4.658956 8.759884 -5.709709 -7.183317 79.180786 2.298941 30.432724 -1.904478 -0.866341 19.376138 -1.377962 -2.220823 0.050453 -8.340620 -6.887575 -12.630762 -69.276358 -10.647641 10.908403 0.174307 8.321216 7.669920 6.216611 -1.354380 -18.991638 -0.473858 -4.630206 35.783375 -1.002172 7.565331 -5.288649 2.818742 0.000000 0.000000 0.000000 -0.363208 9.789978 -2.381577 -2.851948 5.817408 -0.609422 -7.050385 -8.704588 2.789923 0.000000 0.000000 0.000000
-34.147545 98.093519 -143.680232 6.787751 -5.388396 -1.795216 -1.507107 4.252515 0.819556 -0.676865 1.887339 0.377807 -0.676865 1.887339 0.377807 -0.508770 1.415089 0.285421 -0.164370 18.310206 0.109120 -0.338195 -2.180735 0.254874 3.831353 4.521742 8.802080 -5.928496 -7.038880 79.316907 2.371451 30.380512 -1.863337 -0.866737 19.281411 -1.575403 -2.263609 0.058599 -8.278971 -7.138742 -13.044500 -69.052049 -11.378856 10.255331 0.399737 8.239724 7.506227 6.491449 -0.932991 -18.772705 -0.342285 -4.765013 30.260791 -1.232912 7.351649 -5.957300 3.221512 0.000000 0.000000 0.000000 -0.795149 10.498991 -2.415507 -2.710116 5.520413 -0.686204 -7.132540 -9.235901 2.919843 0.000000 0.000000 0.000000
-34.030408 97.944712 -142.363494 7.101399 -5.095975 -1.709503 -1.644386 4.158610 0.799856 -0.737507 1.845428 0.369994 -0.737504 1.845427 0.369995 -0.554196 1.383626 0.279700 -0.207546 18.271312 0.107038 -0.417010 -2.252807 0.265457 3.815052 4.415109 8.837550 -6.102973 -6.934447 79.464442 2.340064 30.300901 -1.851482 -0.899918 19.137081 -1.731144 -2.315700 0.071570 -8.240353 -7.450308 -13.363192 -68.822058 -12.032731 9.573896 0.623169 8.177719 7.347992 6.794870 -0.856781 -18.244494 -0.248114 -5.519790 24.291421 -1.682294 7.569323 -6.593719 3.669668 0.000000 0.000000 0.000000 -1.169262 11.188469 -2.496989 -2.724170 5.205176 -0.760981 -7.121504 -9.743604 3.127364 -0.000000 0.000000 0.000000
-33.919690 97.771052 -141.030560 7.416654 -4.786493 -1.589369 -1.768729 4.046371 0.765347 -0.792266 1.795459 0.355366 -0.792263 1.795457 0.355366 -0.595191 1.346135 0.268832 -0.258088 18.235005 0.107485 -0.510234 -2.320005 0.283169 3.811999 4.321356 8.865510 -6.234375 -6.867306 79.611856 2.232644 30.195103 -1.859622 -0.959766 18.985475 -1.857495 -2.373889 0.080174 -8.222483 -7.771444 -13.610031 -68.605619 -12.620629 8.908679 0.843565 8.124029 7.195406 7.111543 -0.967903 -17.513876 -0.203585 -6.534413 18.119906 -2.046906 7.920461 -7.174943 4.223458 0.000000 0.000000 0.000000 -1.524199 11.848111 -2.617309 -2.831610 4.932373 -0.827469 -7.025973 -10.263167 3.379298 -0.000000 0.000000 -0.000000
-33.821596 97.575890 -139.660845 7.712633 -4.536890 -1.474430 -1.875702 3.963920 0.737843 -0.839437 1.758752 0.343757 -0.839437 1.758752 0.343757 -0.630518 1.318595 0.260214 -0.312891 18.187242 0.096642 -0.607629 -2.408498 0.281641 3.816518 4.222050 8.882256 -6.315792 -6.829548 79.716997 2.136761 30.079332 -1.844614 -1.012641 18.923200 -1.884706 -2.431759 0.062258 -8.227578 -7.992424 -13.818570 -68.432328 -13.135645 8.349189 1.033942 8.065653 7.070360 7.356262 -0.967134 -16.887183 -0.260683 -7.395634 12.751702 -1.969899 7.803141 -7.644896 4.816761 0.000000 -0.000000 0.000000 -1.740430 12.514790 -2.709417 -3.020493 4.823009 -0.881551 -6.919654 -10.865827 3.630355 -0.000000 -0.000000 0.000000
